<svg xmlns="http://www.w3.org/2000/svg" width="24" height="24"><path fill="#E12C2D" d="M12 0c-4.134 0-7.78 2.091-9.938 5.273l5.505 9.483 2.188-.006 2.245-8.052h10.767c-1.957-3.968-6.043-6.698-10.767-6.698z"/><path fill="#FCD209" d="M9.755 14.75l6.745-.018-5.318 9.24c.27.018.543.028.818.028 6.627 0 12-5.373 12-12 0-1.903-.444-3.703-1.233-5.302h-10.767l-2.245 8.052z"/><path fill="#4DB849" d="M9.755 14.75l-2.188.006-5.505-9.483c-1.302 1.918-2.062 4.234-2.062 6.727 0 6.352 4.936 11.551 11.182 11.972l5.318-9.24-6.745.018z"/><circle fill="#fff" cx="12" cy="12" r="5.5"/><circle fill="#4889C8" cx="12" cy="12" r="4.5"/></svg>